<svg xmlns="http://www.w3.org/2000/svg" xmlns:xlink="http://www.w3.org/1999/xlink" width="500" zoomAndPan="magnify" viewBox="0 0 375 374.999991" height="500" preserveAspectRatio="xMidYMid meet" version="1.0"><defs><g/><clipPath id="a90f0fd6b1"><path d="M 84 149.851562 L 133.949219 149.851562 L 133.949219 199 L 84 199 Z M 84 149.851562 " clip-rule="nonzero"/></clipPath><clipPath id="4001ce353a"><path d="M 58.199219 175 L 108 175 L 108 224.851562 L 58.199219 224.851562 Z M 58.199219 175 " clip-rule="nonzero"/></clipPath></defs><g fill="#2720ff" fill-opacity="1"><g transform="translate(146.021186, 188.072976)"><g><path d="M 3.234375 -25.203125 L 13.859375 -25.203125 C 15.203125 -25.203125 16.425781 -24.988281 17.53125 -24.5625 C 18.632812 -24.144531 19.582031 -23.554688 20.375 -22.796875 C 21.164062 -22.046875 21.773438 -21.15625 22.203125 -20.125 C 22.640625 -19.09375 22.859375 -17.960938 22.859375 -16.734375 C 22.859375 -15.515625 22.640625 -14.390625 22.203125 -13.359375 C 21.773438 -12.328125 21.164062 -11.429688 20.375 -10.671875 C 19.582031 -9.921875 18.632812 -9.332031 17.53125 -8.90625 C 16.425781 -8.488281 15.203125 -8.28125 13.859375 -8.28125 L 8.640625 -8.28125 L 8.640625 0 L 3.234375 0 Z M 13.6875 -13.3125 C 14.757812 -13.3125 15.625 -13.628906 16.28125 -14.265625 C 16.945312 -14.910156 17.28125 -15.734375 17.28125 -16.734375 C 17.28125 -17.742188 16.945312 -18.566406 16.28125 -19.203125 C 15.625 -19.835938 14.757812 -20.15625 13.6875 -20.15625 L 8.640625 -20.15625 L 8.640625 -13.3125 Z M 13.6875 -13.3125 "/></g></g></g><g fill="#2720ff" fill-opacity="1"><g transform="translate(169.78123, 188.072976)"><g><path d="M 2.515625 -25.203125 L 7.375 -25.203125 L 7.375 -15.125 L 7.5625 -15.125 C 7.945312 -15.644531 8.390625 -16.125 8.890625 -16.5625 C 9.328125 -16.914062 9.867188 -17.242188 10.515625 -17.546875 C 11.160156 -17.847656 11.914062 -18 12.78125 -18 C 13.664062 -18 14.503906 -17.820312 15.296875 -17.46875 C 16.085938 -17.125 16.773438 -16.632812 17.359375 -16 C 17.953125 -15.363281 18.414062 -14.585938 18.75 -13.671875 C 19.09375 -12.765625 19.265625 -11.75 19.265625 -10.625 L 19.265625 0 L 14.40625 0 L 14.40625 -9.90625 C 14.40625 -10.976562 14.113281 -11.8125 13.53125 -12.40625 C 12.957031 -13.007812 12.164062 -13.3125 11.15625 -13.3125 C 10.082031 -13.3125 9.179688 -12.945312 8.453125 -12.21875 C 7.734375 -11.488281 7.375 -10.535156 7.375 -9.359375 L 7.375 0 L 2.515625 0 Z M 2.515625 -25.203125 "/></g></g></g><g fill="#2720ff" fill-opacity="1"><g transform="translate(190.661278, 188.072976)"><g><path d="M 6.84375 0.359375 C 6.019531 0.359375 5.28125 0.234375 4.625 -0.015625 C 3.96875 -0.265625 3.40625 -0.617188 2.9375 -1.078125 C 2.46875 -1.535156 2.097656 -2.066406 1.828125 -2.671875 C 1.566406 -3.285156 1.4375 -3.957031 1.4375 -4.6875 C 1.4375 -6.125 1.898438 -7.351562 2.828125 -8.375 C 3.753906 -9.394531 5.03125 -10.046875 6.65625 -10.328125 L 12.234375 -11.34375 C 12.140625 -11.96875 11.832031 -12.515625 11.3125 -12.984375 C 10.800781 -13.453125 10.09375 -13.6875 9.1875 -13.6875 C 8.5625 -13.6875 8 -13.582031 7.5 -13.375 C 7.007812 -13.164062 6.597656 -12.929688 6.265625 -12.671875 C 5.859375 -12.378906 5.507812 -12.054688 5.21875 -11.703125 L 2.34375 -14.578125 C 2.84375 -15.203125 3.453125 -15.765625 4.171875 -16.265625 C 4.796875 -16.703125 5.550781 -17.097656 6.4375 -17.453125 C 7.332031 -17.816406 8.367188 -18 9.546875 -18 C 10.671875 -18 11.691406 -17.816406 12.609375 -17.453125 C 13.535156 -17.097656 14.332031 -16.601562 15 -15.96875 C 15.675781 -15.332031 16.191406 -14.585938 16.546875 -13.734375 C 16.910156 -12.878906 17.09375 -11.960938 17.09375 -10.984375 L 17.09375 0 L 12.234375 0 L 12.234375 -2.15625 L 12.0625 -2.15625 C 11.675781 -1.675781 11.234375 -1.257812 10.734375 -0.90625 C 10.296875 -0.5625 9.742188 -0.265625 9.078125 -0.015625 C 8.421875 0.234375 7.675781 0.359375 6.84375 0.359375 Z M 8.453125 -3.59375 C 9.535156 -3.59375 10.4375 -3.957031 11.15625 -4.6875 C 11.875 -5.425781 12.234375 -6.382812 12.234375 -7.5625 L 12.234375 -7.921875 L 8.28125 -7.203125 C 7.65625 -7.078125 7.164062 -6.859375 6.8125 -6.546875 C 6.46875 -6.234375 6.296875 -5.851562 6.296875 -5.40625 C 6.296875 -4.851562 6.472656 -4.410156 6.828125 -4.078125 C 7.191406 -3.753906 7.734375 -3.59375 8.453125 -3.59375 Z M 8.453125 -3.59375 "/></g></g></g><g fill="#2720ff" fill-opacity="1"><g transform="translate(209.381321, 188.072976)"><g><path d="M 2.34375 -17.640625 L 7.203125 -17.640625 L 7.203125 -15.125 L 7.375 -15.125 C 7.757812 -15.644531 8.207031 -16.125 8.71875 -16.5625 C 9.144531 -16.914062 9.679688 -17.242188 10.328125 -17.546875 C 10.972656 -17.847656 11.726562 -18 12.59375 -18 L 12.953125 -18 L 12.953125 -12.78125 C 12.835938 -12.800781 12.707031 -12.828125 12.5625 -12.859375 C 12.414062 -12.878906 12.238281 -12.898438 12.03125 -12.921875 C 11.832031 -12.941406 11.601562 -12.953125 11.34375 -12.953125 C 10.164062 -12.953125 9.179688 -12.53125 8.390625 -11.6875 C 7.597656 -10.851562 7.203125 -9.71875 7.203125 -8.28125 L 7.203125 0 L 2.34375 0 Z M 2.34375 -17.640625 "/></g></g></g><g fill="#2720ff" fill-opacity="1"><g transform="translate(222.341348, 188.072976)"><g><path d="M 2.34375 -17.640625 L 7.203125 -17.640625 L 7.203125 -15.125 L 7.375 -15.125 C 7.6875 -15.644531 8.070312 -16.125 8.53125 -16.5625 C 8.9375 -16.914062 9.4375 -17.242188 10.03125 -17.546875 C 10.632812 -17.847656 11.367188 -18 12.234375 -18 C 13.171875 -18 13.972656 -17.835938 14.640625 -17.515625 C 15.316406 -17.191406 15.859375 -16.835938 16.265625 -16.453125 C 16.742188 -16.015625 17.140625 -15.507812 17.453125 -14.9375 L 17.640625 -14.9375 C 18.046875 -15.507812 18.535156 -16.015625 19.109375 -16.453125 C 19.597656 -16.835938 20.191406 -17.191406 20.890625 -17.515625 C 21.597656 -17.835938 22.4375 -18 23.40625 -18 C 24.269531 -18 25.070312 -17.835938 25.8125 -17.515625 C 26.550781 -17.191406 27.195312 -16.722656 27.75 -16.109375 C 28.300781 -15.492188 28.734375 -14.753906 29.046875 -13.890625 C 29.359375 -13.023438 29.515625 -12.054688 29.515625 -10.984375 L 29.515625 0 L 24.65625 0 L 24.65625 -10.265625 C 24.65625 -11.265625 24.398438 -12.019531 23.890625 -12.53125 C 23.390625 -13.050781 22.6875 -13.3125 21.78125 -13.3125 C 20.769531 -13.3125 19.945312 -12.984375 19.3125 -12.328125 C 18.675781 -11.671875 18.359375 -10.800781 18.359375 -9.71875 L 18.359375 0 L 13.5 0 L 13.5 -10.265625 C 13.5 -11.265625 13.242188 -12.019531 12.734375 -12.53125 C 12.234375 -13.050781 11.53125 -13.3125 10.625 -13.3125 C 9.613281 -13.3125 8.789062 -12.984375 8.15625 -12.328125 C 7.519531 -11.671875 7.203125 -10.800781 7.203125 -9.71875 L 7.203125 0 L 2.34375 0 Z M 2.34375 -17.640625 "/></g></g></g><g fill="#2720ff" fill-opacity="1"><g transform="translate(253.481407, 188.072976)"><g><path d="M 3.234375 -25.203125 L 8.640625 -25.203125 L 8.640625 0 L 3.234375 0 Z M 3.234375 -25.203125 "/></g></g></g><g fill="#2720ff" fill-opacity="1"><g transform="translate(264.641421, 188.072976)"><g><path d="M 3.234375 -25.203125 L 8.09375 -25.203125 L 16.734375 -14.40625 L 25.375 -25.203125 L 30.234375 -25.203125 L 30.234375 0 L 24.84375 0 L 24.84375 -16.5625 L 16.734375 -6.484375 L 8.640625 -16.5625 L 8.640625 0 L 3.234375 0 Z M 3.234375 -25.203125 "/></g></g></g><g fill="#2720ff" fill-opacity="1"><g transform="translate(297.401493, 188.072976)"><g><path d="M 10.4375 0.546875 C 8.800781 0.546875 7.378906 0.34375 6.171875 -0.0625 C 4.960938 -0.476562 3.945312 -0.9375 3.125 -1.4375 C 2.164062 -2.007812 1.363281 -2.671875 0.71875 -3.421875 L 4.3125 -7.015625 C 4.75 -6.515625 5.269531 -6.0625 5.875 -5.65625 C 6.375 -5.3125 6.988281 -5 7.71875 -4.71875 C 8.445312 -4.445312 9.296875 -4.3125 10.265625 -4.3125 C 11.703125 -4.3125 12.75 -4.585938 13.40625 -5.140625 C 14.070312 -5.691406 14.40625 -6.378906 14.40625 -7.203125 C 14.40625 -7.921875 14.09375 -8.488281 13.46875 -8.90625 C 12.84375 -9.332031 12.0625 -9.710938 11.125 -10.046875 C 10.1875 -10.378906 9.175781 -10.722656 8.09375 -11.078125 C 7.019531 -11.441406 6.015625 -11.914062 5.078125 -12.5 C 4.140625 -13.09375 3.359375 -13.847656 2.734375 -14.765625 C 2.109375 -15.691406 1.796875 -16.890625 1.796875 -18.359375 C 1.796875 -19.347656 2.003906 -20.289062 2.421875 -21.1875 C 2.847656 -22.082031 3.453125 -22.863281 4.234375 -23.53125 C 5.015625 -24.207031 5.972656 -24.742188 7.109375 -25.140625 C 8.242188 -25.535156 9.535156 -25.734375 10.984375 -25.734375 C 12.367188 -25.734375 13.59375 -25.550781 14.65625 -25.1875 C 15.726562 -24.832031 16.613281 -24.441406 17.3125 -24.015625 C 18.132812 -23.503906 18.84375 -22.9375 19.4375 -22.3125 L 15.84375 -18.71875 C 15.457031 -19.125 15.035156 -19.484375 14.578125 -19.796875 C 14.171875 -20.066406 13.675781 -20.3125 13.09375 -20.53125 C 12.519531 -20.757812 11.875 -20.875 11.15625 -20.875 C 9.789062 -20.875 8.816406 -20.632812 8.234375 -20.15625 C 7.660156 -19.675781 7.375 -19.078125 7.375 -18.359375 C 7.375 -17.640625 7.6875 -17.066406 8.3125 -16.640625 C 8.9375 -16.222656 9.71875 -15.847656 10.65625 -15.515625 C 11.59375 -15.179688 12.597656 -14.832031 13.671875 -14.46875 C 14.753906 -14.113281 15.765625 -13.640625 16.703125 -13.046875 C 17.640625 -12.460938 18.421875 -11.707031 19.046875 -10.78125 C 19.671875 -9.851562 19.984375 -8.660156 19.984375 -7.203125 C 19.984375 -6.171875 19.765625 -5.1875 19.328125 -4.25 C 18.898438 -3.3125 18.269531 -2.488281 17.4375 -1.78125 C 16.613281 -1.070312 15.613281 -0.503906 14.4375 -0.078125 C 13.257812 0.335938 11.925781 0.546875 10.4375 0.546875 Z M 10.4375 0.546875 "/></g></g></g><g clip-path="url(#a90f0fd6b1)"><path fill="#67dcff" d="M 133.921875 187.421875 C 133.921875 193.65625 128.84375 198.703125 122.570312 198.703125 L 99.324219 198.703125 C 91.289062 198.703125 84.765625 192.21875 84.765625 184.234375 L 84.765625 161.128906 C 84.765625 154.894531 89.839844 149.851562 96.113281 149.851562 C 102.386719 149.851562 107.464844 154.894531 107.464844 161.128906 L 107.464844 176.144531 L 122.570312 176.144531 C 128.84375 176.144531 133.921875 181.210938 133.921875 187.421875 Z M 133.921875 187.421875 " fill-opacity="1" fill-rule="nonzero"/></g><g clip-path="url(#4001ce353a)"><path fill="#587dff" d="M 58.222656 187.277344 C 58.222656 181.042969 63.300781 175.996094 69.574219 175.996094 L 92.820312 175.996094 C 100.855469 175.996094 107.382812 182.480469 107.382812 190.46875 L 107.382812 213.570312 C 107.382812 219.804688 102.304688 224.851562 96.03125 224.851562 C 89.757812 224.851562 84.679688 219.804688 84.679688 213.570312 L 84.679688 198.558594 L 69.574219 198.558594 C 63.300781 198.558594 58.222656 193.511719 58.222656 187.277344 Z M 58.222656 187.277344 " fill-opacity="1" fill-rule="nonzero"/></g><path fill="#2720ff" d="M 107.382812 190.46875 L 107.382812 198.703125 L 99.324219 198.703125 C 91.289062 198.703125 84.765625 192.21875 84.765625 184.234375 L 84.765625 175.996094 L 92.820312 175.996094 C 100.855469 175.996094 107.382812 182.480469 107.382812 190.46875 Z M 107.382812 190.46875 " fill-opacity="1" fill-rule="nonzero"/><g fill="#7ed957" fill-opacity="1"><g transform="translate(156.845912, 212.046329)"><g><path d="M 5.796875 -1.84375 L 1.875 -1.84375 L 1.078125 0 L -0.015625 0 L 3.328125 -7.359375 L 4.359375 -7.359375 L 7.703125 0 L 6.609375 0 Z M 5.421875 -2.6875 L 3.84375 -6.28125 L 2.25 -2.6875 Z M 5.421875 -2.6875 "/></g></g></g><g fill="#7ed957" fill-opacity="1"><g transform="translate(167.275919, 212.046329)"><g/></g></g><g fill="#7ed957" fill-opacity="1"><g transform="translate(172.838983, 212.046329)"><g><path d="M 1.109375 -7.359375 L 4.203125 -7.359375 C 4.984375 -7.359375 5.675781 -7.203125 6.28125 -6.890625 C 6.882812 -6.585938 7.351562 -6.15625 7.6875 -5.59375 C 8.019531 -5.039062 8.1875 -4.40625 8.1875 -3.6875 C 8.1875 -2.957031 8.019531 -2.3125 7.6875 -1.75 C 7.351562 -1.195312 6.882812 -0.765625 6.28125 -0.453125 C 5.675781 -0.148438 4.984375 0 4.203125 0 L 1.109375 0 Z M 4.140625 -0.921875 C 4.734375 -0.921875 5.253906 -1.035156 5.703125 -1.265625 C 6.160156 -1.492188 6.507812 -1.816406 6.75 -2.234375 C 7 -2.648438 7.125 -3.132812 7.125 -3.6875 C 7.125 -4.226562 7 -4.707031 6.75 -5.125 C 6.507812 -5.539062 6.160156 -5.863281 5.703125 -6.09375 C 5.253906 -6.332031 4.734375 -6.453125 4.140625 -6.453125 L 2.15625 -6.453125 L 2.15625 -0.921875 Z M 4.140625 -0.921875 "/></g></g></g><g fill="#7ed957" fill-opacity="1"><g transform="translate(184.257096, 212.046329)"><g><path d="M 4.421875 0.078125 C 3.679688 0.078125 3.015625 -0.0820312 2.421875 -0.40625 C 1.828125 -0.726562 1.359375 -1.175781 1.015625 -1.75 C 0.671875 -2.332031 0.5 -2.976562 0.5 -3.6875 C 0.5 -4.394531 0.671875 -5.035156 1.015625 -5.609375 C 1.359375 -6.179688 1.828125 -6.628906 2.421875 -6.953125 C 3.015625 -7.273438 3.679688 -7.4375 4.421875 -7.4375 C 5.160156 -7.4375 5.828125 -7.273438 6.421875 -6.953125 C 7.015625 -6.628906 7.476562 -6.179688 7.8125 -5.609375 C 8.15625 -5.035156 8.328125 -4.394531 8.328125 -3.6875 C 8.328125 -2.96875 8.15625 -2.320312 7.8125 -1.75 C 7.476562 -1.175781 7.015625 -0.726562 6.421875 -0.40625 C 5.828125 -0.0820312 5.160156 0.078125 4.421875 0.078125 Z M 4.421875 -0.859375 C 4.960938 -0.859375 5.445312 -0.976562 5.875 -1.21875 C 6.3125 -1.46875 6.65625 -1.804688 6.90625 -2.234375 C 7.15625 -2.660156 7.28125 -3.144531 7.28125 -3.6875 C 7.28125 -4.21875 7.15625 -4.695312 6.90625 -5.125 C 6.65625 -5.550781 6.3125 -5.890625 5.875 -6.140625 C 5.445312 -6.390625 4.960938 -6.515625 4.421875 -6.515625 C 3.890625 -6.515625 3.398438 -6.390625 2.953125 -6.140625 C 2.515625 -5.890625 2.171875 -5.550781 1.921875 -5.125 C 1.679688 -4.695312 1.5625 -4.21875 1.5625 -3.6875 C 1.5625 -3.144531 1.679688 -2.660156 1.921875 -2.234375 C 2.171875 -1.804688 2.515625 -1.46875 2.953125 -1.21875 C 3.398438 -0.976562 3.890625 -0.859375 4.421875 -0.859375 Z M 4.421875 -0.859375 "/></g></g></g><g fill="#7ed957" fill-opacity="1"><g transform="translate(195.822369, 212.046329)"><g><path d="M 3.25 0.078125 C 2.695312 0.078125 2.160156 -0.00390625 1.640625 -0.171875 C 1.128906 -0.347656 0.726562 -0.570312 0.4375 -0.84375 L 0.8125 -1.65625 C 1.09375 -1.40625 1.453125 -1.203125 1.890625 -1.046875 C 2.335938 -0.890625 2.789062 -0.8125 3.25 -0.8125 C 3.863281 -0.8125 4.316406 -0.914062 4.609375 -1.125 C 4.910156 -1.332031 5.0625 -1.609375 5.0625 -1.953125 C 5.0625 -2.203125 4.976562 -2.40625 4.8125 -2.5625 C 4.65625 -2.71875 4.453125 -2.835938 4.203125 -2.921875 C 3.960938 -3.003906 3.625 -3.097656 3.1875 -3.203125 C 2.632812 -3.335938 2.1875 -3.472656 1.84375 -3.609375 C 1.5 -3.742188 1.207031 -3.945312 0.96875 -4.21875 C 0.726562 -4.5 0.609375 -4.875 0.609375 -5.34375 C 0.609375 -5.738281 0.710938 -6.09375 0.921875 -6.40625 C 1.128906 -6.71875 1.441406 -6.96875 1.859375 -7.15625 C 2.285156 -7.34375 2.804688 -7.4375 3.421875 -7.4375 C 3.859375 -7.4375 4.285156 -7.378906 4.703125 -7.265625 C 5.128906 -7.160156 5.492188 -7.003906 5.796875 -6.796875 L 5.453125 -5.953125 C 5.140625 -6.148438 4.804688 -6.296875 4.453125 -6.390625 C 4.109375 -6.492188 3.765625 -6.546875 3.421875 -6.546875 C 2.828125 -6.546875 2.378906 -6.4375 2.078125 -6.21875 C 1.785156 -6.007812 1.640625 -5.734375 1.640625 -5.390625 C 1.640625 -5.128906 1.722656 -4.921875 1.890625 -4.765625 C 2.054688 -4.609375 2.265625 -4.484375 2.515625 -4.390625 C 2.765625 -4.304688 3.101562 -4.21875 3.53125 -4.125 C 4.082031 -3.988281 4.523438 -3.851562 4.859375 -3.71875 C 5.203125 -3.582031 5.492188 -3.378906 5.734375 -3.109375 C 5.972656 -2.835938 6.09375 -2.472656 6.09375 -2.015625 C 6.09375 -1.628906 5.988281 -1.273438 5.78125 -0.953125 C 5.570312 -0.628906 5.253906 -0.375 4.828125 -0.1875 C 4.398438 -0.0078125 3.875 0.078125 3.25 0.078125 Z M 3.25 0.078125 "/></g></g></g><g fill="#7ed957" fill-opacity="1"><g transform="translate(205.085571, 212.046329)"><g><path d="M 6.453125 -0.921875 L 6.453125 0 L 1.109375 0 L 1.109375 -7.359375 L 6.296875 -7.359375 L 6.296875 -6.453125 L 2.15625 -6.453125 L 2.15625 -4.1875 L 5.84375 -4.1875 L 5.84375 -3.296875 L 2.15625 -3.296875 L 2.15625 -0.921875 Z M 6.453125 -0.921875 "/></g></g></g><g fill="#7ed957" fill-opacity="1"><g transform="translate(214.863849, 212.046329)"><g/></g></g><g fill="#7ed957" fill-opacity="1"><g transform="translate(220.426913, 212.046329)"><g><path d="M 4.421875 0.078125 C 3.679688 0.078125 3.015625 -0.0820312 2.421875 -0.40625 C 1.828125 -0.726562 1.359375 -1.175781 1.015625 -1.75 C 0.671875 -2.332031 0.5 -2.976562 0.5 -3.6875 C 0.5 -4.394531 0.671875 -5.035156 1.015625 -5.609375 C 1.359375 -6.179688 1.828125 -6.628906 2.421875 -6.953125 C 3.015625 -7.273438 3.679688 -7.4375 4.421875 -7.4375 C 5.160156 -7.4375 5.828125 -7.273438 6.421875 -6.953125 C 7.015625 -6.628906 7.476562 -6.179688 7.8125 -5.609375 C 8.15625 -5.035156 8.328125 -4.394531 8.328125 -3.6875 C 8.328125 -2.96875 8.15625 -2.320312 7.8125 -1.75 C 7.476562 -1.175781 7.015625 -0.726562 6.421875 -0.40625 C 5.828125 -0.0820312 5.160156 0.078125 4.421875 0.078125 Z M 4.421875 -0.859375 C 4.960938 -0.859375 5.445312 -0.976562 5.875 -1.21875 C 6.3125 -1.46875 6.65625 -1.804688 6.90625 -2.234375 C 7.15625 -2.660156 7.28125 -3.144531 7.28125 -3.6875 C 7.28125 -4.21875 7.15625 -4.695312 6.90625 -5.125 C 6.65625 -5.550781 6.3125 -5.890625 5.875 -6.140625 C 5.445312 -6.390625 4.960938 -6.515625 4.421875 -6.515625 C 3.890625 -6.515625 3.398438 -6.390625 2.953125 -6.140625 C 2.515625 -5.890625 2.171875 -5.550781 1.921875 -5.125 C 1.679688 -4.695312 1.5625 -4.21875 1.5625 -3.6875 C 1.5625 -3.144531 1.679688 -2.660156 1.921875 -2.234375 C 2.171875 -1.804688 2.515625 -1.46875 2.953125 -1.21875 C 3.398438 -0.976562 3.890625 -0.859375 4.421875 -0.859375 Z M 4.421875 -0.859375 "/></g></g></g><g fill="#7ed957" fill-opacity="1"><g transform="translate(231.992185, 212.046329)"><g><path d="M 2.15625 -6.453125 L 2.15625 -3.875 L 5.84375 -3.875 L 5.84375 -2.96875 L 2.15625 -2.96875 L 2.15625 0 L 1.109375 0 L 1.109375 -7.359375 L 6.296875 -7.359375 L 6.296875 -6.453125 Z M 2.15625 -6.453125 "/></g></g></g><g fill="#7ed957" fill-opacity="1"><g transform="translate(241.402547, 212.046329)"><g/></g></g><g fill="#7ed957" fill-opacity="1"><g transform="translate(246.965611, 212.046329)"><g><path d="M 4.390625 0.078125 C 3.660156 0.078125 3 -0.0820312 2.40625 -0.40625 C 1.8125 -0.726562 1.34375 -1.175781 1 -1.75 C 0.664062 -2.320312 0.5 -2.96875 0.5 -3.6875 C 0.5 -4.394531 0.664062 -5.035156 1 -5.609375 C 1.34375 -6.179688 1.8125 -6.628906 2.40625 -6.953125 C 3 -7.273438 3.664062 -7.4375 4.40625 -7.4375 C 4.976562 -7.4375 5.503906 -7.335938 5.984375 -7.140625 C 6.460938 -6.953125 6.867188 -6.671875 7.203125 -6.296875 L 6.515625 -5.640625 C 5.960938 -6.222656 5.273438 -6.515625 4.453125 -6.515625 C 3.898438 -6.515625 3.398438 -6.390625 2.953125 -6.140625 C 2.515625 -5.890625 2.171875 -5.550781 1.921875 -5.125 C 1.679688 -4.695312 1.5625 -4.21875 1.5625 -3.6875 C 1.5625 -3.144531 1.679688 -2.660156 1.921875 -2.234375 C 2.171875 -1.804688 2.515625 -1.46875 2.953125 -1.21875 C 3.398438 -0.976562 3.898438 -0.859375 4.453125 -0.859375 C 5.265625 -0.859375 5.953125 -1.148438 6.515625 -1.734375 L 7.203125 -1.078125 C 6.867188 -0.691406 6.460938 -0.398438 5.984375 -0.203125 C 5.503906 -0.015625 4.972656 0.078125 4.390625 0.078125 Z M 4.390625 0.078125 "/></g></g></g><g fill="#7ed957" fill-opacity="1"><g transform="translate(257.30101, 212.046329)"><g><path d="M 5.796875 -1.84375 L 1.875 -1.84375 L 1.078125 0 L -0.015625 0 L 3.328125 -7.359375 L 4.359375 -7.359375 L 7.703125 0 L 6.609375 0 Z M 5.421875 -2.6875 L 3.84375 -6.28125 L 2.25 -2.6875 Z M 5.421875 -2.6875 "/></g></g></g><g fill="#7ed957" fill-opacity="1"><g transform="translate(267.731017, 212.046329)"><g><path d="M 6.03125 0 L 4.4375 -2.265625 C 4.238281 -2.242188 4.082031 -2.234375 3.96875 -2.234375 L 2.15625 -2.234375 L 2.15625 0 L 1.109375 0 L 1.109375 -7.359375 L 3.96875 -7.359375 C 4.925781 -7.359375 5.675781 -7.128906 6.21875 -6.671875 C 6.769531 -6.222656 7.046875 -5.597656 7.046875 -4.796875 C 7.046875 -4.222656 6.90625 -3.738281 6.625 -3.34375 C 6.34375 -2.945312 5.941406 -2.65625 5.421875 -2.46875 L 7.171875 0 Z M 3.9375 -3.140625 C 4.601562 -3.140625 5.113281 -3.28125 5.46875 -3.5625 C 5.820312 -3.851562 6 -4.265625 6 -4.796875 C 6 -5.328125 5.820312 -5.734375 5.46875 -6.015625 C 5.113281 -6.304688 4.601562 -6.453125 3.9375 -6.453125 L 2.15625 -6.453125 L 2.15625 -3.140625 Z M 3.9375 -3.140625 "/></g></g></g><g fill="#7ed957" fill-opacity="1"><g transform="translate(278.108462, 212.046329)"><g><path d="M 1.109375 -7.359375 L 2.15625 -7.359375 L 2.15625 0 L 1.109375 0 Z M 1.109375 -7.359375 "/></g></g></g><g fill="#7ed957" fill-opacity="1"><g transform="translate(284.10251, 212.046329)"><g><path d="M 7.4375 -7.359375 L 7.4375 0 L 6.578125 0 L 2.15625 -5.484375 L 2.15625 0 L 1.109375 0 L 1.109375 -7.359375 L 1.96875 -7.359375 L 6.390625 -1.875 L 6.390625 -7.359375 Z M 7.4375 -7.359375 "/></g></g></g><g fill="#7ed957" fill-opacity="1"><g transform="translate(295.373452, 212.046329)"><g><path d="M 6.203125 -3.71875 L 7.21875 -3.71875 L 7.21875 -0.859375 C 6.851562 -0.554688 6.425781 -0.320312 5.9375 -0.15625 C 5.457031 0 4.953125 0.078125 4.421875 0.078125 C 3.679688 0.078125 3.015625 -0.0820312 2.421875 -0.40625 C 1.828125 -0.726562 1.359375 -1.175781 1.015625 -1.75 C 0.671875 -2.320312 0.5 -2.96875 0.5 -3.6875 C 0.5 -4.394531 0.671875 -5.035156 1.015625 -5.609375 C 1.359375 -6.191406 1.828125 -6.640625 2.421875 -6.953125 C 3.023438 -7.273438 3.703125 -7.4375 4.453125 -7.4375 C 5.035156 -7.4375 5.566406 -7.335938 6.046875 -7.140625 C 6.523438 -6.953125 6.9375 -6.675781 7.28125 -6.3125 L 6.625 -5.65625 C 6.03125 -6.226562 5.316406 -6.515625 4.484375 -6.515625 C 3.929688 -6.515625 3.429688 -6.390625 2.984375 -6.140625 C 2.535156 -5.898438 2.1875 -5.5625 1.9375 -5.125 C 1.6875 -4.695312 1.5625 -4.21875 1.5625 -3.6875 C 1.5625 -3.144531 1.6875 -2.660156 1.9375 -2.234375 C 2.1875 -1.804688 2.535156 -1.46875 2.984375 -1.21875 C 3.429688 -0.976562 3.929688 -0.859375 4.484375 -0.859375 C 5.140625 -0.859375 5.710938 -1.015625 6.203125 -1.328125 Z M 6.203125 -3.71875 "/></g></g></g></svg>